<svg width="24" height="24" viewBox="0 0 24 24" fill="none" xmlns="http://www.w3.org/2000/svg">
<g clip-path="url(#clip0_193_3272)">
<path d="M8.29275 6.82585H6.76348C6.39548 6.82585 6.09604 6.52609 6.09604 6.15766C6.09604 5.78797 6.39501 5.48948 6.76339 5.48948C6.76682 5.48948 6.77021 5.48952 6.77364 5.48952H8.23807C8.50103 5.49216 8.76108 5.61028 8.95181 5.81395C9.21835 6.09846 9.66503 6.11296 9.94955 5.84651C10.2341 5.57997 10.2487 5.13329 9.98211 4.84877C9.52762 4.36359 8.89496 4.08261 8.2463 4.07776C8.24451 4.07776 8.24277 4.07776 8.24103 4.07776H8.23402V3.45051C8.23402 3.06068 7.91797 2.74463 7.52814 2.74463C7.1383 2.74463 6.82226 3.06068 6.82226 3.45051V4.07771C5.54108 4.07771 4.68433 5.06063 4.68433 6.15762C4.68433 7.30449 5.61703 8.23757 6.76353 8.23757H8.2928C8.6608 8.23757 8.96023 8.53729 8.96023 8.90571C8.96023 9.27545 8.66127 9.5739 8.29294 9.5739C8.2895 9.5739 8.28607 9.57385 8.28268 9.57385H6.68489C6.49915 9.57197 6.30193 9.50496 6.12927 9.3851C5.80898 9.16265 5.36917 9.24209 5.14687 9.56242C4.92456 9.88265 5.0039 10.3225 5.32419 10.5448C5.83261 10.8978 6.29054 10.9856 6.8223 10.9856V11.6128C6.8223 12.0027 7.13835 12.3187 7.52819 12.3187C7.91802 12.3187 8.23407 12.0027 8.23407 11.6128V10.9856C9.52447 10.9856 10.372 9.99418 10.372 8.90571C10.3719 7.75889 9.43924 6.82585 8.29275 6.82585Z" fill="#A9A9A9"/>
<path d="M14.8918 9.104C15.8915 4.39628 12.2852 0 7.52809 0C3.37708 0 0 3.37878 0 7.53181C0 12.2915 4.39774 15.9055 9.10918 14.897C8.11012 19.588 11.701 24 16.472 24C20.6229 24 24 20.6213 24 16.4682C24 11.7099 19.6027 8.09318 14.8918 9.104ZM1.41176 7.53181C1.41176 4.15722 4.15553 1.41176 7.52809 1.41176C11.7741 1.41176 14.7432 5.66546 13.2665 9.65449C11.6841 10.4026 10.4027 11.6864 9.65708 13.2707C5.67172 14.7542 1.41176 11.7869 1.41176 7.53181ZM16.472 22.5882C13.0994 22.5882 10.3557 19.8428 10.3557 16.4682C10.3557 13.0937 13.0994 10.3483 16.472 10.3483C19.8445 10.3483 22.5882 13.0937 22.5882 16.4682C22.5882 19.8428 19.8445 22.5882 16.472 22.5882Z" fill="#A9A9A9"/>
<path d="M18.8808 18.9433C17.8954 18.6305 16.8655 18.5311 15.8506 18.6463C15.9937 18.2075 16.0944 17.7571 16.1525 17.3H16.9983C17.3882 17.3 17.7042 16.984 17.7042 16.5941C17.7042 16.2043 17.3882 15.8882 16.9983 15.8882H16.1947C16.1801 15.665 16.1711 15.6014 16.1114 15.0561C16.0124 14.1524 17.1341 13.6692 17.7279 14.3389C17.9865 14.6305 18.4326 14.6575 18.7244 14.3987C19.016 14.1401 19.0429 13.694 18.7842 13.4023C17.2862 11.7125 14.4587 12.9376 14.7081 15.21C14.7718 15.7909 14.767 15.7388 14.779 15.8882H14.2769C13.8871 15.8882 13.571 16.2042 13.571 16.5941C13.571 16.9839 13.8871 17.3 14.2769 17.3H14.7262C14.6175 17.987 14.3885 18.6527 14.0432 19.2724C13.7382 19.8197 14.2479 20.4656 14.8511 20.2955C16.0464 19.959 17.161 19.8784 18.4537 20.2888C18.8246 20.4066 19.222 20.2017 19.3401 19.8296C19.4579 19.4581 19.2523 19.0613 18.8808 18.9433Z" fill="#A9A9A9"/>
<path d="M17.5295 2.21987C18.9127 2.21987 20.3827 3.26434 20.3827 5.20001V5.86467L19.747 5.22862C19.4715 4.95286 19.0245 4.95286 18.7488 5.22834C18.473 5.50392 18.4729 5.95088 18.7485 6.2266L20.5893 8.06848C20.8624 8.34189 21.3107 8.34589 21.5878 8.06848L23.4287 6.2266C23.7043 5.95088 23.7042 5.50396 23.4284 5.22834C23.1527 4.95272 22.7057 4.95286 22.4302 5.22862L21.7944 5.86472V5.20001C21.7944 2.63196 19.8435 0.808105 17.5294 0.808105C17.1395 0.808105 16.8235 1.12415 16.8235 1.51399C16.8235 1.90382 17.1396 2.21987 17.5295 2.21987Z" fill="#A9A9A9"/>
<path d="M6.4707 21.7802C5.0875 21.7802 3.61743 20.7357 3.61743 18.8V18.1353L4.25319 18.7714C4.52872 19.0471 4.97559 19.0474 5.25145 18.7717C5.52722 18.4961 5.52731 18.0492 5.25173 17.7734L3.41084 15.9315C3.13776 15.6579 2.68853 15.6547 2.41235 15.9315L0.571358 17.7735C0.295781 18.0492 0.295875 18.4961 0.57164 18.7718C0.847311 19.0473 1.29428 19.0472 1.5699 18.7715L2.20566 18.1354V18.8C2.20566 21.3681 4.15658 23.1919 6.4707 23.1919C6.86054 23.1919 7.17658 22.8759 7.17658 22.4861C7.17658 22.0962 6.86054 21.7802 6.4707 21.7802Z" fill="#A9A9A9"/>
</g>
<defs>
<clipPath id="clip0_193_3272">
<rect width="24" height="24" fill="white"/>
</clipPath>
</defs>
</svg>
