<svg width="28" height="28" viewBox="0 0 28 28" fill="none" xmlns="http://www.w3.org/2000/svg">
<path d="M14.0002 25.6666C20.4435 25.6666 25.6668 20.4432 25.6668 13.9999C25.6668 7.5566 20.4435 2.33325 14.0002 2.33325C7.55684 2.33325 2.3335 7.5566 2.3335 13.9999C2.3335 20.4432 7.55684 25.6666 14.0002 25.6666Z" stroke="white" stroke-opacity="0.6" stroke-width="2" stroke-linecap="round" stroke-linejoin="round"/>
<path d="M10.605 10.4999C10.8793 9.72021 11.4207 9.06272 12.1333 8.64392C12.8459 8.22512 13.6837 8.07203 14.4984 8.21176C15.313 8.3515 16.0519 8.77504 16.5842 9.40738C17.1165 10.0397 17.4079 10.84 17.4066 11.6666C17.4066 13.9999 13.9066 15.1666 13.9066 15.1666" stroke="white" stroke-opacity="0.6" stroke-width="2" stroke-linecap="round" stroke-linejoin="round"/>
<path d="M14 19.8333H14.0113" stroke="white" stroke-opacity="0.6" stroke-width="2" stroke-linecap="round" stroke-linejoin="round"/>
</svg>
