<svg width="27" height="27" viewBox="0 0 27 27" fill="none" xmlns="http://www.w3.org/2000/svg">
<path d="M13.48 1C11.0117 1 8.59881 1.73194 6.54649 3.10326C4.49416 4.47458 2.89457 6.42369 1.94999 8.70411C1.00541 10.9845 0.758262 13.4938 1.23981 15.9147C1.72135 18.3356 2.90995 20.5593 4.65531 22.3047C6.40067 24.05 8.62439 25.2387 11.0453 25.7202C13.4662 26.2017 15.9755 25.9546 18.2559 25.01C20.5363 24.0654 22.4854 22.4658 23.8567 20.4135C25.2281 18.3612 25.96 15.9483 25.96 13.48C25.9564 10.1712 24.6404 6.99894 22.3007 4.65926C19.9611 2.31958 16.7888 1.00358 13.48 1ZM13.48 23.88C11.4231 23.88 9.41234 23.27 7.70207 22.1273C5.9918 20.9845 4.65881 19.3603 3.87166 17.4599C3.08451 15.5596 2.87855 13.4685 3.27984 11.4511C3.68112 9.43366 4.67163 7.58055 6.12609 6.12609C7.58056 4.67162 9.43366 3.68112 11.4511 3.27983C13.4685 2.87855 15.5596 3.0845 17.4599 3.87165C19.3603 4.6588 20.9845 5.9918 22.1273 7.70207C23.2701 9.41234 23.88 11.4231 23.88 13.48C23.877 16.2373 22.7803 18.8808 20.8306 20.8306C18.8808 22.7803 16.2373 23.877 13.48 23.88Z" fill="#A9A9A9" stroke="#A9A9A9" stroke-width="0.5"/>
<path d="M13.4799 10.3599C13.2041 10.3599 12.9396 10.4694 12.7446 10.6645C12.5495 10.8595 12.4399 11.124 12.4399 11.3999V19.7199C12.4399 19.9957 12.5495 20.2602 12.7446 20.4553C12.9396 20.6503 13.2041 20.7599 13.4799 20.7599C13.7558 20.7599 14.0203 20.6503 14.2153 20.4553C14.4104 20.2602 14.5199 19.9957 14.5199 19.7199V11.3999C14.5199 11.124 14.4104 10.8595 14.2153 10.6645C14.0203 10.4694 13.7558 10.3599 13.4799 10.3599Z" fill="#A9A9A9" stroke="#A9A9A9" stroke-width="0.5"/>
<path d="M13.4799 8.28019C14.0543 8.28019 14.5199 7.81457 14.5199 7.2402C14.5199 6.66582 14.0543 6.2002 13.4799 6.2002C12.9056 6.2002 12.4399 6.66582 12.4399 7.2402C12.4399 7.81457 12.9056 8.28019 13.4799 8.28019Z" fill="#A9A9A9" stroke="#A9A9A9" stroke-width="0.5"/>
</svg>
