<svg width="23" height="26" viewBox="0 0 23 26" fill="none" xmlns="http://www.w3.org/2000/svg">
<path d="M8.91711 12.7266H5.89089C5.79766 12.7266 5.70822 12.7637 5.64231 12.8296L3.26186 15.2101C3.25595 15.216 3.24925 15.2227 3.23275 15.2159C3.21625 15.209 3.21625 15.1996 3.21625 15.1912V13.0782C3.21625 12.8841 3.05884 12.7267 2.86468 12.7267H2.48639C2.05447 12.7267 1.70314 12.3753 1.70314 11.9434V2.48639C1.70314 2.05452 2.05452 1.70314 2.48639 1.70314H11.9433C12.3752 1.70314 12.7266 2.05452 12.7266 2.48639V8.91711C12.7266 9.11127 12.884 9.26868 13.0781 9.26868C13.2723 9.26868 13.4297 9.11127 13.4297 8.91711V2.48639C13.4298 1.66681 12.7629 1 11.9434 1H2.48639C1.66681 1 1 1.66681 1 2.48639V11.9434C1 12.7629 1.66681 13.4298 2.48639 13.4298H2.51311V15.1912C2.51311 15.4874 2.68992 15.7521 2.96363 15.8655C3.05448 15.9031 3.1495 15.9214 3.24367 15.9214C3.43319 15.9214 3.61905 15.8472 3.75902 15.7073L6.03649 13.4298H8.91711C9.11127 13.4298 9.26868 13.2724 9.26868 13.0782C9.26868 12.8841 9.11131 12.7266 8.91711 12.7266Z" fill="#A9A9A9" stroke="#A9A9A9" stroke-width="0.75"/>
<path d="M21.0219 10.0786H11.565C10.7454 10.0786 10.0786 10.7454 10.0786 11.565V21.0219C10.0786 21.8416 10.7454 22.5083 11.565 22.5083H17.4718L19.7493 24.7858C19.8893 24.9258 20.0751 24.9999 20.2647 24.9999C20.3588 24.9999 20.4539 24.9816 20.5447 24.944C20.8184 24.8307 20.9952 24.5659 20.9952 24.2697V22.5083H21.0219C21.8416 22.5083 22.5083 21.8415 22.5083 21.0219V11.565C22.5084 10.7454 21.8416 10.0786 21.0219 10.0786ZM21.8052 21.0219C21.8052 21.4538 21.4539 21.8052 21.022 21.8052H20.6437C20.4495 21.8052 20.2921 21.9626 20.2921 22.1568V24.2697C20.2921 24.2781 20.2921 24.2876 20.2756 24.2944C20.2592 24.3013 20.2524 24.2945 20.2465 24.2886L17.8661 21.9081C17.8002 21.8422 17.7107 21.8051 17.6175 21.8051H11.565C11.1331 21.8051 10.7818 21.4538 10.7818 21.0219V11.565C10.7818 11.1331 11.1331 10.7818 11.565 10.7818H21.0219C21.4539 10.7818 21.8052 11.1331 21.8052 11.565V21.0219H21.8052Z" fill="#A9A9A9" stroke="#A9A9A9" stroke-width="0.75"/>
<path d="M7.67871 3.96572C7.6775 3.96249 7.67623 3.95925 7.67492 3.95606C7.59785 3.76884 7.41738 3.64795 7.21497 3.64795C7.21483 3.64795 7.21464 3.64795 7.21445 3.64795C7.01186 3.64814 6.83139 3.76945 6.75465 3.957C6.75357 3.95963 6.75254 3.9623 6.75151 3.96497L4.33684 10.3051C4.26774 10.4866 4.35877 10.6897 4.54023 10.7588C4.58139 10.7745 4.62372 10.7819 4.6653 10.7819C4.80695 10.7819 4.9405 10.6957 4.9939 10.5554L5.50906 9.20275H8.90358L9.12812 9.79779C9.1967 9.97943 9.39944 10.0712 9.58117 10.0026C9.76282 9.93406 9.85455 9.73118 9.78597 9.54953L7.67871 3.96572ZM5.77686 8.49965L7.21413 4.72605L8.63822 8.49965H5.77686Z" fill="#A9A9A9" stroke="#A9A9A9" stroke-width="0.75"/>
<path d="M17.9686 19.0894C17.5953 19.3812 17.147 19.5354 16.6719 19.5354C15.51 19.5354 14.5647 18.5901 14.5647 17.4282C14.5647 16.2662 15.51 15.3209 16.6719 15.3209H17.6176C17.8118 15.3209 17.9692 15.1635 17.9692 14.9694C17.9692 14.7752 17.8118 14.6178 17.6176 14.6178C17.6176 14.6178 16.499 14.6178 16.4828 14.6178C16.0509 14.6178 15.6995 14.2664 15.6995 13.8345C15.6995 13.4027 16.0509 13.0513 16.4828 13.0513C16.7053 13.0513 16.9181 13.1465 17.0667 13.3124C17.1962 13.4571 17.4185 13.4694 17.5631 13.3399C17.7078 13.2103 17.7201 12.9881 17.5906 12.8434C17.3088 12.5287 16.905 12.3481 16.4828 12.3481C15.6632 12.3481 14.9964 13.015 14.9964 13.8345C14.9964 14.2517 15.1694 14.629 15.4471 14.8992C14.5094 15.3552 13.8616 16.3174 13.8616 17.4282C13.8616 18.9779 15.1223 20.2386 16.672 20.2386C17.3055 20.2386 17.9036 20.0327 18.4016 19.6434C18.5546 19.5238 18.5817 19.3028 18.4621 19.1499C18.3425 18.9969 18.1216 18.9698 17.9686 19.0894Z" fill="#A9A9A9" stroke="#A9A9A9" stroke-width="0.75"/>
</svg>
