<svg width="60" height="60" viewBox="0 0 60 60" fill="none" xmlns="http://www.w3.org/2000/svg">
<g clip-path="url(#clip0_1088_996)">
<path d="M30 60C46.5685 60 60 46.5685 60 30C60 13.4315 46.5685 0 30 0C13.4315 0 0 13.4315 0 30C0 46.5685 13.4315 60 30 60Z" fill="#295185"/>
<path d="M56.4362 54.8164C56.4362 54.8164 50.6633 52.8074 48.185 52.2563C45.7066 51.7057 52.0399 49.5027 52.0399 49.5027L56.5555 53.4403L56.4362 54.8159V54.8164Z" fill="#295185"/>
<path d="M7.65321 38.1806C7.60956 37.3625 7.82545 37.0705 8.64863 36.8281C8.56366 36.6443 8.4787 36.4609 8.42066 36.3351C8.40488 36.3327 8.39095 36.3304 8.37516 36.3276C8.16577 36.2933 7.28132 36.1336 6.97768 35.8332H6.97721C6.87693 35.5467 6.77432 35.2714 6.70236 34.9891C6.59604 34.5699 6.733 34.2904 7.1281 34.1005C7.35142 33.9932 7.59703 33.931 7.82963 33.8498C7.7586 33.0763 8.01906 32.3998 8.4722 31.7754C8.73545 31.4128 9.12219 31.2568 9.51126 31.0868C9.92633 30.9058 10.3251 30.6843 10.8057 30.7405C10.8693 30.7479 10.9761 30.7126 11.0007 30.6657C11.0838 30.5055 11.1395 30.331 11.205 30.1638C11.3062 30.2511 11.3011 30.2497 11.2486 30.4122C11.2337 30.4573 11.2597 30.5153 11.2672 30.5678C11.3271 30.5594 11.413 30.5729 11.4427 30.539C11.5894 30.3704 11.7217 30.1889 11.8619 30.0083C12.0086 30.3078 11.6191 30.4099 11.6056 30.7015C11.8661 30.5617 12.1015 30.4359 12.3411 30.3073C12.4316 30.6012 11.9747 30.486 12.0165 30.7437H12.4724C12.4107 30.7925 12.3703 30.824 12.3304 30.8561C12.9163 31.2944 12.8304 32.1175 12.8021 32.6519C12.7738 33.1863 13.1494 33.5819 13.1494 33.5819L13.1522 33.5809C13.1963 33.6645 13.2705 33.7444 13.3806 33.8145C13.596 33.9519 13.7181 33.9208 13.9099 33.7615C14.4234 33.3353 15.0046 33.2583 15.6105 33.5735C16.3079 33.9361 17.0001 34.3094 17.6947 34.678C17.7402 34.7022 17.7991 34.7598 17.8289 34.7477C18.1385 34.6195 18.3229 34.8744 18.5536 34.9752C18.7226 35.049 18.8777 35.1544 19.0378 35.2472C19.1734 35.3257 19.2774 35.4032 19.3043 35.5927C19.3192 35.6976 19.5049 35.7793 19.6131 35.8712C20.2882 36.5547 21.044 36.4154 21.044 36.4154C21.6095 36.4061 22.1824 36.4312 22.7377 36.3457C23.5047 36.2278 24.2513 36.271 24.9978 36.4298C26.4297 36.7343 27.861 37.0422 29.2896 37.3621C30.0232 37.5264 30.7252 37.4642 31.3924 37.1267C31.7406 36.9507 32.093 36.8137 32.4848 36.7771C32.6097 36.7655 32.7402 36.7269 32.7792 36.8801C32.8177 37.0338 32.671 37.0394 32.5703 37.0802C32.3581 37.1666 32.1501 37.2618 31.9402 37.3532C32.4649 37.2516 32.9681 37.1076 33.4737 36.9725C33.6362 36.9289 33.8415 36.8643 33.906 37.09C33.9715 37.3198 33.7407 37.3282 33.6 37.3829C33.2899 37.5037 32.9746 37.6109 32.665 37.7321C32.5944 37.7595 32.5378 37.8212 32.4746 37.8672C32.4844 37.8932 32.4946 37.9187 32.5043 37.9447C33.0707 37.8872 33.6372 37.8333 34.2031 37.7697C34.3341 37.7548 34.4761 37.7168 34.5175 37.8783C34.5569 38.0339 34.4673 38.1625 34.3085 38.1903C33.8345 38.273 33.3586 38.3426 32.8823 38.409C32.7653 38.4253 32.6436 38.4113 32.5243 38.4113C32.522 38.4396 32.5201 38.4684 32.5178 38.4968C32.5842 38.5116 32.6501 38.5293 32.7174 38.5404C33.1724 38.6156 33.6293 38.6788 34.0806 38.7725C34.1781 38.7925 34.3192 38.9165 34.3238 38.9991C34.3331 39.1621 34.1725 39.1932 34.0295 39.1862C33.613 39.1653 33.197 39.1221 32.7806 39.1226C32.4593 39.1231 32.1366 39.1672 31.8181 39.2141C31.7462 39.2247 31.6881 39.3274 31.6236 39.3877C31.6928 39.4467 31.7531 39.5256 31.833 39.5614C32.0967 39.6793 32.3734 39.7694 32.632 39.8966C32.7253 39.9425 32.8024 40.0521 32.8484 40.1505C32.8753 40.2076 32.8474 40.3181 32.8029 40.3692C32.775 40.4012 32.6654 40.3803 32.6 40.3604C32.1464 40.2206 31.689 40.0911 31.2447 39.9258C30.8645 39.7847 30.4708 39.6435 30.1402 39.4197C29.9345 39.2809 29.7539 39.1402 29.5046 39.1008C29.4322 39.0892 29.3644 39.0525 29.2929 39.0335C28.6559 38.864 28.0268 38.6476 27.3791 38.5399C26.6767 38.4234 25.9575 38.4053 25.2448 38.3505C24.8302 38.3185 24.4152 38.298 24.0001 38.2725C24.3358 38.5009 24.671 38.7048 25.0145 38.8919C25.6325 39.2289 25.8962 39.7406 25.8164 40.4296C25.802 40.5531 25.7825 40.6756 25.7667 40.7875C25.9139 40.8846 26.0564 40.9811 26.2022 41.0731C26.4023 41.1993 26.6149 41.3089 26.8039 41.4501C27.0388 41.6255 27.2542 41.8257 27.4785 42.0146C27.5853 42.1047 27.6939 42.1929 27.8016 42.2816C27.9024 42.3164 28.0417 42.2816 28.1768 42.2936C28.4999 42.322 28.7947 42.4264 29.0575 42.6316C29.1787 42.7264 29.3468 42.7658 29.4967 42.8211C30.0571 43.0277 30.6184 43.2306 31.1793 43.4353C31.1992 43.4427 31.222 43.4562 31.2331 43.4739C31.442 43.7998 31.7972 43.8541 32.1306 43.9502C32.9435 44.1851 33.7523 44.4358 34.5708 44.6499C34.9799 44.7567 35.4089 44.8128 35.8216 44.6341C36.3523 44.4043 36.8825 44.1721 37.4099 43.9344C38.241 43.5597 39.0999 43.2784 40.015 43.2064C41.1952 43.1136 42.3773 43.0449 43.557 42.9474C44.0139 42.9097 44.4665 42.8225 44.9689 42.751C44.8598 42.5146 44.7827 42.3317 44.6917 42.1558C44.4921 41.7672 44.6132 41.4835 45.0371 41.359C45.4262 41.2448 45.8074 41.2453 46.1974 41.3804C46.4332 41.4621 46.6867 41.5085 46.936 41.5336C47.8892 41.6293 48.8424 41.6098 49.7863 41.4454C51.1754 41.5559 52.4461 39.7002 52.5975 39.2624C52.7261 38.89 52.8863 38.5269 52.9917 38.1485C53.0845 37.8166 53.1049 37.4656 53.1876 37.1304C53.2674 36.8054 53.3241 36.4511 53.5001 36.1781C53.7898 35.7278 54.1635 35.3294 54.5085 34.9144C54.6849 34.7022 54.9008 34.5726 55.1998 34.5764C55.5564 34.5805 55.6413 34.6595 55.5675 35.0091C55.4839 35.4046 55.3985 35.8002 55.3047 36.1935C55.0484 37.2738 54.6394 38.299 54.1073 39.2726C52.4791 42.7398 49.9724 43.2231 49.705 43.3123C49.2449 43.466 48.7973 43.6419 48.4867 44.0491C48.4236 44.1322 48.2922 44.1726 48.184 44.2125C48.0596 44.2585 47.9282 44.2868 47.7978 44.3147C47.2183 44.44 46.6417 44.5816 46.0576 44.6796C45.5892 44.7585 45.104 44.7478 44.6388 44.8388C43.2506 45.1109 41.8986 45.513 40.5791 46.0209C40.2857 46.1337 39.9876 46.234 39.6399 46.3589C39.8098 46.4309 39.9221 46.4866 40.0391 46.527C40.4175 46.6574 40.7936 46.7953 41.1776 46.9077C42.2389 47.2178 43.3044 47.5131 44.3662 47.8218C44.5529 47.8762 44.6903 47.8283 44.7966 47.6858C44.9596 47.4676 45.1151 47.2438 45.2679 47.0186C45.611 46.5135 46.1454 46.5014 46.5075 47.0001C46.6064 47.1366 46.6672 47.2991 46.7605 47.4402C46.8325 47.5488 46.911 47.6654 47.015 47.7387C47.5294 48.1004 48.0786 48.418 48.5685 48.8089C49.5992 49.6316 50.6689 50.3786 51.928 50.8244C53.1189 51.2459 54.203 51.8713 55.2708 52.5306C56.1701 53.0859 57.0806 53.6235 57.9883 54.1649C58.2176 54.3018 58.4595 54.4174 58.6884 54.5539C59.0738 54.7842 59.2121 55.1983 59.4248 55.5554C59.4517 55.6004 59.4568 55.6803 59.4345 55.7267C59.4085 55.7819 59.3426 55.8553 59.2924 55.8567C58.7641 55.8688 58.2594 55.8502 57.7654 55.5642C56.6307 54.9068 55.4737 54.2837 54.3028 53.6908C53.2577 53.1615 52.1815 52.6917 51.1192 52.1954C50.2208 51.7752 49.3303 51.3379 48.4194 50.9455C48.1752 50.8401 47.8706 50.8499 47.5935 50.8471C47.3585 50.8448 47.1143 50.9776 46.9059 50.7626C46.8882 50.7445 46.8506 50.7408 46.8214 50.7385C45.8905 50.6595 45.0195 50.3489 44.1638 50.0151C42.7185 49.4505 41.2059 49.1919 39.6844 48.957C39.053 48.8595 38.4225 48.7583 37.7916 48.6594C37.0422 48.5415 36.2956 48.4166 35.5296 48.4421C34.8982 48.463 34.2649 48.4375 33.6325 48.4236C33.5081 48.4208 33.3674 48.4054 33.2639 48.3456C32.9941 48.1891 32.6989 48.1886 32.4054 48.1445C31.5869 48.0215 30.7679 47.9175 29.9378 47.9704C29.7706 47.9811 29.578 47.9003 29.4489 48.0869C29.4368 48.1046 29.3797 48.0953 29.344 48.0921C28.6861 48.0285 28.0254 47.9857 27.3717 47.8929C26.777 47.8084 26.1859 47.6858 25.6009 47.5488C25.0531 47.4207 24.5094 47.2689 23.975 47.0939C23.6616 46.9912 23.3366 46.8673 23.0776 46.6732C22.7595 46.435 22.4387 46.2665 22.0431 46.2075C21.7446 46.163 21.4721 46.0413 21.2952 45.7725C21.2701 45.7344 21.2176 45.701 21.1721 45.6913C20.9994 45.6546 20.8253 45.6095 20.6503 45.6049C20.504 45.6007 20.3569 45.6541 20.2092 45.6727C20.1178 45.6843 20.024 45.6862 19.9321 45.6778C19.8601 45.6713 19.7909 45.6393 19.7189 45.6239C19.322 45.539 18.9218 45.4684 18.5304 45.3639C18.4259 45.3361 18.3424 45.213 18.2616 45.123C18.1529 45.0013 18.0568 44.869 17.9542 44.7427C17.9129 44.6921 17.872 44.6397 17.8233 44.5965C17.7481 44.5292 17.6743 44.4284 17.5865 44.4126C17.1259 44.3291 16.6612 44.2654 16.1974 44.2014C16.0989 44.1875 15.9963 44.1995 15.8844 44.1995C15.8844 44.1995 15.0715 44.0087 14.2455 43.6076C13.8365 43.3982 13.42 43.2022 12.9989 43.017C12.6804 42.8768 12.4279 42.673 12.2677 42.3661C12.0161 41.8832 11.647 41.5034 11.205 41.1933C10.8735 40.9607 10.5494 40.7197 10.1176 40.6654C9.81444 40.6273 9.60272 40.417 9.54608 40.1157C9.49222 39.8288 9.48572 39.5335 9.4588 39.2461C9.40865 39.2642 9.31301 39.3023 9.21458 39.3329C8.78605 39.468 8.22288 39.3106 7.98052 38.9504C7.9666 38.9295 7.9522 38.9114 7.93781 38.8942C7.87049 38.7981 7.73771 38.572 7.65042 38.1801L7.65321 38.1806Z" fill="#E2EBF1"/>
<path d="M41.2458 13.5695C41.2458 13.9799 40.9129 14.3128 40.5025 14.3128C40.0921 14.3128 39.7592 13.9799 39.7592 13.5695C39.7592 13.1591 40.0921 12.8262 40.5025 12.8262C40.9129 12.8262 41.2458 13.1591 41.2458 13.5695Z" fill="#295185"/>
<path d="M34.9957 24.5558C35.6495 24.5558 36.1796 24.0258 36.1796 23.3719C36.1796 22.718 35.6495 22.188 34.9957 22.188C34.3418 22.188 33.8118 22.718 33.8118 23.3719C33.8118 24.0258 34.3418 24.5558 34.9957 24.5558Z" fill="#295185"/>
</g>
<defs>
<clipPath id="clip0_1088_996">
<rect width="60" height="60" fill="white"/>
</clipPath>
</defs>
</svg>
