<svg width="18" height="18" viewBox="0 0 18 18" fill="none" xmlns="http://www.w3.org/2000/svg">
<path fill-rule="evenodd" clip-rule="evenodd" d="M9.67553 16.1115C11.1729 14.9831 15.2727 11.5375 15.2727 7.63636C15.2727 6.0089 14.6262 4.44809 13.4754 3.2973C12.3246 2.14651 10.7638 1.5 9.13636 1.5C7.5089 1.5 5.94809 2.14651 4.7973 3.2973C3.64651 4.44809 3 6.0089 3 7.63636C3 11.5375 7.09982 14.9831 8.5972 16.1115C8.91961 16.3544 9.35312 16.3544 9.67553 16.1115ZM12.5453 7.63637C12.5453 9.51916 11.019 11.0455 9.1362 11.0455C7.25341 11.0455 5.7271 9.51916 5.7271 7.63637C5.7271 5.75358 7.25341 4.22728 9.1362 4.22728C11.019 4.22728 12.5453 5.75358 12.5453 7.63637Z" fill="white" fill-opacity="0.8"/>
</svg>
