<svg width="24" height="26" viewBox="0 0 24 26" fill="none" xmlns="http://www.w3.org/2000/svg">
<path d="M7.14727 22.8443L7.14717 22.8442C5.20888 21.7664 3.59381 20.1902 2.46909 18.2788C1.34437 16.3673 0.750871 14.1901 0.75 11.9723L0.75 11.9722L0.75 6.0818L7.14727 22.8443ZM7.14727 22.8443L10.9674 24.9663C10.9675 24.9664 10.9677 24.9665 10.9679 24.9666C11.2997 25.1521 11.6734 25.2497 12.0535 25.25H12.0539C12.4337 25.2498 12.8072 25.1524 13.1387 24.9671C13.1388 24.967 13.1389 24.967 13.139 24.9669M7.14727 22.8443L13.139 24.9669M10.886 1.07893L10.887 1.0783C11.2383 0.863502 11.6421 0.74989 12.0539 0.75C12.4657 0.75011 12.8694 0.863939 13.2206 1.07893L13.2214 1.07945C14.3988 1.80663 15.6505 2.40592 16.9552 2.86712C18.3782 3.36894 19.8549 3.70274 21.3553 3.86174C21.9046 3.91823 22.4135 4.17648 22.7833 4.58651C23.1533 4.99664 23.3579 5.52946 23.3575 6.08179M10.886 1.07893L23.3575 6.08179M10.886 1.07893C9.70877 1.80652 8.45701 2.40602 7.15215 2.86718C5.72923 3.36895 4.25254 3.70272 2.75214 3.86171C2.20285 3.9182 1.69403 4.17645 1.32418 4.58649C0.954268 4.99659 0.749674 5.52935 0.75 6.08163L10.886 1.07893ZM23.3575 6.08179V11.9722V11.9723C23.3566 14.1901 22.7631 16.3674 21.6384 18.2788C20.5137 20.1903 18.8986 21.7665 16.9603 22.8442L16.9602 22.8443L13.139 24.9669M23.3575 6.08179L13.139 24.9669M12.0379 23.0432L12.0391 23.0439C12.0436 23.0464 12.0486 23.0478 12.0536 23.0478C12.0587 23.0478 12.0637 23.0465 12.0682 23.044L12.0685 23.0438L15.8914 20.9204C15.8915 20.9204 15.8915 20.9203 15.8915 20.9203L16.0129 21.1389L12.0379 23.0432ZM12.0379 23.0432L8.21607 20.9203C6.62064 20.0333 5.29124 18.7361 4.36548 17.1628C3.43973 15.5896 2.95125 13.7976 2.95058 11.9722M12.0379 23.0432L2.95058 11.9722M2.95058 11.9722C2.95058 11.9722 2.95058 11.9721 2.95058 11.9721V11.9722ZM16.3052 4.70597C14.8691 4.19839 13.4914 3.53885 12.1955 2.73857C12.1529 2.71223 12.1038 2.69843 12.0538 2.69874C12.0038 2.69851 11.9547 2.71212 11.912 2.73805L12.0418 2.95174L16.3052 4.70597ZM21.1569 11.9722H21.4069L21.1569 11.9721C21.1569 11.9721 21.1569 11.9722 21.1569 11.9722Z" fill="#A9A9A9" stroke="#A9A9A9" stroke-width="0.5"/>
<path d="M11.4869 15.7753C11.6374 15.7755 11.7862 15.7447 11.9242 15.685C12.0623 15.6252 12.1867 15.5376 12.2895 15.4277C12.2895 15.4277 12.2896 15.4276 12.2896 15.4276L16.5399 10.8939C16.6402 10.7892 16.7188 10.6656 16.7712 10.5304C16.8237 10.3947 16.8489 10.2499 16.8451 10.1044C16.8413 9.95885 16.8086 9.81554 16.7491 9.68274C16.6895 9.54993 16.6042 9.43026 16.4981 9.33066C16.3919 9.23106 16.2671 9.1535 16.1307 9.10249C15.9944 9.05148 15.8493 9.02803 15.7039 9.03349C15.5584 9.03895 15.4155 9.07321 15.2834 9.13429L15.3883 9.36121L15.2834 9.13429C15.1517 9.19518 15.0334 9.28149 14.9352 9.38828L11.4169 13.1407L9.66687 11.5852L9.66628 11.5847C9.44801 11.3919 9.16222 11.2935 8.87155 11.3111C8.58087 11.3287 8.30903 11.4608 8.11561 11.6785C7.92219 11.8962 7.82298 12.1817 7.83971 12.4724C7.85644 12.7632 7.98776 13.0354 8.20488 13.2295L8.20539 13.2299L10.7559 15.497C10.7559 15.4971 10.756 15.4971 10.7561 15.4972C10.9572 15.6766 11.2174 15.7756 11.4869 15.7753ZM11.4869 15.7753C11.4868 15.7753 11.4867 15.7753 11.4865 15.7753L11.4869 15.5253L11.4873 15.7753C11.4872 15.7753 11.4871 15.7753 11.4869 15.7753Z" fill="#A9A9A9" stroke="#A9A9A9" stroke-width="0.5"/>
</svg>
