<svg width="12" height="12" viewBox="0 0 12 12" fill="none" xmlns="http://www.w3.org/2000/svg">
<path d="M2.31249 6.35586C3.08315 6.35586 3.7619 5.9756 4.18096 5.39327C4.58477 5.97437 5.25476 6.35586 6.01468 6.35586C6.77263 6.35586 7.4421 5.97635 7.84627 5.39778C8.26287 5.97732 8.94183 6.35586 9.70849 6.35586C11.1791 6.35586 12.2913 4.93019 11.932 3.50316L11.2309 0.71854C11.1244 0.295462 10.7451 0 10.3086 0H1.6861C1.24964 0 0.870407 0.295462 0.763886 0.718566L0.0672968 3.4866C-0.131443 4.27598 0.129784 4.96388 0.591136 5.59017V11.0495C0.591136 11.5736 1.01412 12 1.5385 12H10.4597C10.9841 12 11.4073 11.5736 11.4073 11.0495V7.50896C11.4073 7.2793 11.2141 7.09312 10.9844 7.09312C10.7546 7.09312 10.5615 7.27927 10.5615 7.50896V11.0495C10.5615 11.1151 10.5253 11.1795 10.4597 11.1795H7.84461V7.93174C7.84461 7.70207 7.65802 7.51284 7.42824 7.51284H4.57022C4.34044 7.51284 4.15382 7.70204 4.15382 7.93174V11.1795H1.5385C1.47296 11.1795 1.43695 11.115 1.43695 11.0495V6.18124C1.69325 6.29535 2.00331 6.35586 2.31249 6.35586ZM8.2547 0.820515H10.3086C10.3631 0.820515 10.4105 0.863027 10.4239 0.915899L11.1248 3.70326C11.3528 4.60875 10.6473 5.52276 9.71187 5.52276C8.9062 5.52276 8.2547 4.86863 8.2547 4.06285V0.820515ZM4.61515 0.820515H7.43452V4.06285C7.43452 4.84565 6.82233 5.52417 6.02327 5.52417C5.21111 5.52417 4.61515 4.83806 4.61515 4.04957V0.820515ZM4.99961 8.35899H6.9988V11.1795H4.99961V8.35899ZM0.873534 3.68955L1.57058 0.915951C1.58391 0.863053 1.63156 0.82054 1.6861 0.82054H3.76934V4.0496C3.76934 4.86234 3.11291 5.5236 2.30039 5.52417C1.35506 5.52358 0.642807 4.60614 0.873534 3.68955Z" fill="white" fill-opacity="0.8"/>
</svg>
