<svg width="28" height="28" viewBox="0 0 28 28" fill="none" xmlns="http://www.w3.org/2000/svg">
<path d="M22.8 3H5.2C3.98497 3 3 3.89543 3 5V9C3 10.1046 3.98497 11 5.2 11H22.8C24.015 11 25 10.1046 25 9V5C25 3.89543 24.015 3 22.8 3Z" stroke="white" stroke-opacity="0.6" stroke-width="2" stroke-linecap="round" stroke-linejoin="round"/>
<path d="M22.8 17H5.2C3.98497 17 3 17.8954 3 19V23C3 24.1046 3.98497 25 5.2 25H22.8C24.015 25 25 24.1046 25 23V19C25 17.8954 24.015 17 22.8 17Z" stroke="white" stroke-opacity="0.6" stroke-width="2" stroke-linecap="round" stroke-linejoin="round"/>
</svg>
