<svg width="12" height="12" viewBox="0 0 12 12" fill="none" xmlns="http://www.w3.org/2000/svg">
<g clip-path="url(#clip0_1096_862)">
<path fill-rule="evenodd" clip-rule="evenodd" d="M1.5 9.8751H2.4375C2.46876 9.8751 2.49923 9.86322 2.52492 9.83753C2.55061 9.81184 2.5625 9.78136 2.5625 9.7501V6.4126C2.5625 6.34455 2.50613 6.2876 2.4375 6.2876H1.5C1.43137 6.2876 1.375 6.34455 1.375 6.4126V9.7501C1.375 9.78136 1.38689 9.81184 1.41258 9.83753C1.43827 9.86322 1.46874 9.8751 1.5 9.8751ZM2.4375 10.8751H1.5C0.881243 10.8751 0.375 10.3688 0.375 9.7501V6.4126C0.375 5.79011 0.881243 5.2876 1.5 5.2876H2.4375C3.05626 5.2876 3.5625 5.79011 3.5625 6.4126V9.7501C3.5625 10.3688 3.05626 10.8751 2.4375 10.8751Z" fill="white" fill-opacity="0.8"/>
<path fill-rule="evenodd" clip-rule="evenodd" d="M6.46875 4.2063H5.53125C5.49998 4.2063 5.46951 4.21819 5.44382 4.24387C5.41814 4.26955 5.40625 4.30002 5.40625 4.3313V9.75005C5.40625 9.78131 5.41814 9.81178 5.44383 9.83748C5.46952 9.86317 5.49999 9.87505 5.53125 9.87505H6.46875C6.50001 9.87505 6.53048 9.86317 6.55617 9.83748C6.58186 9.81178 6.59375 9.78131 6.59375 9.75005V4.3313C6.59375 4.30002 6.58186 4.26955 6.55618 4.24387C6.5305 4.21819 6.50003 4.2063 6.46875 4.2063ZM5.53125 3.2063H6.46875C7.08751 3.2063 7.59375 3.71254 7.59375 4.3313V9.75005C7.59375 10.3688 7.08751 10.8751 6.46875 10.8751H5.53125C4.91249 10.8751 4.40625 10.3688 4.40625 9.75005V4.3313C4.40625 3.71254 4.91249 3.2063 5.53125 3.2063Z" fill="white" fill-opacity="0.8"/>
<path fill-rule="evenodd" clip-rule="evenodd" d="M10.5 2.125H9.5625C9.53123 2.125 9.50076 2.13689 9.47507 2.16257C9.44939 2.18826 9.4375 2.21873 9.4375 2.25V9.75C9.4375 9.78126 9.44939 9.81173 9.47508 9.83742C9.50077 9.86311 9.53124 9.875 9.5625 9.875H10.5C10.5313 9.875 10.5617 9.86311 10.5874 9.83742C10.6131 9.81173 10.625 9.78126 10.625 9.75V2.25C10.625 2.21873 10.6131 2.18826 10.5874 2.16257C10.5617 2.13689 10.5313 2.125 10.5 2.125ZM9.5625 1.125H10.5C11.1188 1.125 11.625 1.63124 11.625 2.25V9.75C11.625 10.3687 11.1188 10.875 10.5 10.875H9.5625C8.94374 10.875 8.4375 10.3687 8.4375 9.75V2.25C8.4375 1.63124 8.94374 1.125 9.5625 1.125Z" fill="white" fill-opacity="0.8"/>
</g>
<defs>
<clipPath id="clip0_1096_862">
<rect width="12" height="12" fill="white"/>
</clipPath>
</defs>
</svg>
